Coordinates
version=1
nRows=21
nColumns=12
inDegrees=yes

Units are S.I. units (second, meters, Newtons, ...)
Angles are in degrees

endheader
time	SC_y	SC_z	SC_x	AC_y	AC_z	AC_x	GH_y	GH_z	GH_yy	EL_x	PS_y
       0.0              -57.11          14.02          12.11           37.4          1.426         -4.688         -62.64          72.71          134.1          102.3          99.67
   0.01263               -57.1          14.02          12.11           37.4          1.427          -4.69         -62.63          72.71          134.1          102.2          99.68
   0.02525               -57.1          14.02          12.11          37.41          1.428         -4.692         -62.61           72.7          134.0          102.2          99.68
   0.03788              -57.09          14.02          12.11          37.41           1.43         -4.695         -62.59          72.69          134.0          102.2          99.69
   0.05051              -57.09          14.03          12.12          37.41          1.431         -4.697         -62.57          72.68          134.0          102.2          99.69
   0.06313              -57.08          14.03          12.12          37.41          1.433           -4.7         -62.55          72.67          133.9          102.2           99.7
   0.07576              -57.08          14.03          12.12          37.41          1.434         -4.703         -62.53          72.66          133.9          102.2           99.7
   0.08839              -57.07          14.04          12.12          37.42          1.436         -4.706          -62.5          72.65          133.8          102.1          99.71
     0.101              -57.07          14.04          12.12          37.42          1.437         -4.709         -62.48          72.64          133.8          102.1          99.71
    0.1136              -57.06          14.04          12.13          37.42          1.439         -4.712         -62.45          72.63          133.7          102.1          99.72
    0.1263              -57.05          14.05          12.13          37.42          1.441         -4.716         -62.42          72.62          133.7          102.1          99.73
    0.1389              -57.05          14.05          12.13          37.43          1.444          -4.72         -62.39           72.6          133.6          102.0          99.73
    0.1515              -57.04          14.05          12.13          37.43          1.446         -4.724         -62.36          72.59          133.5          102.0          99.74
    0.1642              -57.03          14.06          12.14          37.43          1.448         -4.729         -62.32          72.57          133.5          102.0          99.75
    0.1768              -57.02          14.06          12.14          37.44          1.451         -4.734         -62.28          72.56          133.4          101.9          99.76
    0.1894              -57.01          14.07          12.15          37.44          1.454          -4.74         -62.24          72.54          133.3          101.9          99.77
     0.202               -57.0          14.08          12.15          37.45          1.457         -4.746         -62.19          72.52          133.2          101.9          99.78
    0.2147              -56.99          14.08          12.15          37.45          1.461         -4.752         -62.14          72.49          133.1          101.8          99.79
    0.2273              -56.97          14.09          12.16          37.46          1.465         -4.759         -62.08          72.47          133.0          101.8          99.81
    0.2399              -56.96           14.1          12.16          37.46          1.469         -4.767         -62.02          72.44          132.9          101.7          99.82
    0.2525              -56.94          14.11          12.17          37.47          1.474         -4.776         -61.95          72.41          132.8          101.7          99.84
